<svg xmlns="http://www.w3.org/2000/svg" width="340" height="340" viewBox="0 0 340 340"><rect width="340" height="340" fill="#fff" opacity="0"/><path d="M1069.088-896.212a131.684,131.684,0,0,1-23.752-2.354,153.955,153.955,0,0,1-26.737-7.555,135.21,135.21,0,0,1-26.42-13.5,106.237,106.237,0,0,1-22.8-20.2,91.649,91.649,0,0,1-11.026-16.518,91.124,91.124,0,0,1-7.442-19.666,103.536,103.536,0,0,1-3.029-23,132.326,132.326,0,0,1,1.921-24.835,133.89,133.89,0,0,0,131.51,122.826c.774.014,1.556.021,2.391.021,2.921,0,5.874-.1,8.778-.284a15.893,15.893,0,0,1-5.3,2.759C1082.669-897.01,1076.412-896.212,1069.088-896.212Z" transform="translate(-914 1205)" fill="#ffbd88" stroke="rgba(0,0,0,0)" stroke-miterlimit="10" stroke-width="1"/><path d="M975.674-1108.823h0a97.2,97.2,0,0,1,9.889-24.15,80.116,80.116,0,0,1,15.367-19.088,74.535,74.535,0,0,1,24.188-14.647,88.9,88.9,0,0,1,31.052-5.291c16.243,0,34.056,3.759,52.946,11.174a135.657,135.657,0,0,0-23.109-2.391c-.791-.014-1.6-.021-2.392-.021A134.962,134.962,0,0,0,975.674-1108.823Z" transform="translate(-914 1198.561)" fill="#f757af" stroke="rgba(0,0,0,0)" stroke-miterlimit="10" stroke-width="1" opacity="0.4"/><path d="M1217.214-1020.755v0c.436-4.034.693-8.15.764-12.233a133.2,133.2,0,0,0-25.378-80.966,162.511,162.511,0,0,1,18.664,9.108,93.564,93.564,0,0,1,17.177,12.409c9.926,9.3,14.534,19.274,13.7,29.656a50.368,50.368,0,0,1-3.888,15.727,59.157,59.157,0,0,1-8.447,13.86,84.257,84.257,0,0,1-12.228,12.149l-.359.292Z" transform="translate(-914 1205)" fill="#ab8eeb" stroke="rgba(0,0,0,0)" stroke-miterlimit="10" stroke-width="1" style="mix-blend-mode:multiply;isolation:isolate"/><path d="M.1,3.56c-2.636,7.993,46.26,33.161,52.211,15.388S2.738-4.433.1,3.56Z" transform="matrix(0.961, 0.276, -0.276, 0.961, 242.476, 268.32)" fill="#f757af"/><path d="M.562,6.683c-4.684,8.2,21.45,8.327,21.594-1.456S3.561,1.438.562,6.683Z" transform="matrix(0.961, 0.276, -0.276, 0.961, 258.099, 250.848)" fill="#ab8eeb"/><path d="M24.58,1.207c6.359,5.3-6.444,31.381-20.658,19.639S18.221-4.1,24.58,1.207Z" transform="matrix(0.961, 0.276, -0.276, 0.961, 28.308, 139.011)" fill="#f757af"/><path d="M40.006,12.005c-5.38,7.182-20.234,16.1-31.915,12.935C-1.764,22.27-9.112-4.485,26.7.654,47.21,3.6,42.586,8.559,40.006,12.005Z" transform="matrix(0.961, 0.276, -0.276, 0.961, 13.532, 108.655)" fill="#ffbd88"/><path d="M7.026,11.445C17.973,7.476,9.547-5.868,1.967,2.962-2.365,8.007.966,13.643,7.026,11.445Z" transform="matrix(0.961, 0.276, -0.276, 0.961, 291.751, 75.921)" fill="#ab8eeb" style="mix-blend-mode:multiply;isolation:isolate"/></svg>