<svg xmlns="http://www.w3.org/2000/svg" width="130" height="130" viewBox="0 0 130 130"><g transform="translate(-704 -864)"><rect width="130" height="130" transform="translate(704 864)" fill="rgba(255,255,255,0)"/><path d="M285.356,304.668c-2.6-6.309-12.164-3.378-28.05-4.968s-25.385-6.7-25.168-18.084c.18-9.417,5.994-15.723,13.11-24.245,4.389-5.255,3.254-8.744-6.316-7.949s-17.7-1.246-17.906-11.813c-.2-10.253,7.57-14.618,33.6-14.817s28.947,7.162,29.283,12.917c.766,13.116-21.467,28.982-19.522,39.746.971,5.374,9.894,5.8,19.022,6,11.327.25,21.365-3.548,26.445-17.729,8.259-23.06-.232-69.144-43.361-69.752-78.278-1.1-123.827,105.748-21.471,123.786C268.472,321.894,289.376,314.405,285.356,304.668Z" transform="translate(519.217 674.235)" fill="#729b4e" opacity="0.4"/><path d="M530.516,499.006c-1.161,3.521,20.375,14.606,23,6.778S531.677,495.486,530.516,499.006Z" transform="translate(278.191 481.499)" fill="#729b4e" opacity="0.5"/><path d="M542.555,472.826c-2.063,3.61,9.448,3.668,9.511-.641S543.876,470.516,542.555,472.826Z" transform="translate(272.88 497.842)" fill="#729b4e" opacity="0.5"/><g transform="translate(710.031 868.203)"><path d="M444.937,788.526a60.936,60.936,0,1,1,43.088-17.848A60.935,60.935,0,0,1,444.937,788.526Z" transform="translate(-384.003 -666.654)" fill="#729b4e"/><path d="M-12.854,39.439l5.131-6.634L-9.711,10.744l-10.108-6.8L-8.655,8.151,70.273,3.942l15.6,11.673a60.955,60.955,0,0,1-55.7,54.649Z" transform="translate(35.701 51.412)" fill="#547b30" stroke="rgba(0,0,0,0)" stroke-miterlimit="10" stroke-width="1"/></g><g transform="translate(0 5.715)"><path d="M1016.4,773.288l45.94,28.939-28.18,18.276L1017.3,809.532l-20.567,9.7-26.392-17,46.06-28.939" transform="translate(-245.344 115.306)" fill="#2d3d61"/><path d="M1017.3,847.469s9.366-7,24.585-7,23.415,7,23.415,7V829.582s-.664-8.631-13.045-8.631h-22.077s-12.878.311-12.878,8.631Z" transform="translate(-270.296 93.626)" fill="#15b0bf"/><rect width="2" height="26" rx="1" transform="translate(735 916.618)" fill="#fcab40"/><path d="M4,0H4A4,4,0,0,1,8,4v6.154A1.846,1.846,0,0,1,6.154,12H1.846A1.846,1.846,0,0,1,0,10.154V4A4,4,0,0,1,4,0Z" transform="translate(732 941.285)" fill="#fcab40"/><ellipse cx="24" cy="8.5" rx="24" ry="8.5" transform="translate(747 932.285)" fill="#273554"/><path d="M1017.3,847.469s9.366-7,24.585-7,23.415,7,23.415,7V829.582s-.664-8.631-13.045-8.631h-22.077s-12.878.311-12.878,8.631Z" transform="translate(-270.296 93.626)" fill="#3e578d"/><path d="M46.5-3.129,92,25.533,70,39.8v9.3l-.014-.013c-.438,4.5-10.741,8.109-23.486,8.2Z" transform="translate(725 892)" opacity="0.13"/><path d="M1.1,1.035a4,4,0,0,1,5.809,0A3.989,3.989,0,0,1,4,2.285,3.988,3.988,0,0,1,1.1,1.035Z" transform="translate(732 941.5)" fill="#cb8223"/><circle cx="3" cy="3" r="3" transform="translate(733 936.618)" fill="#e99b33"/></g></g></svg>