<svg xmlns="http://www.w3.org/2000/svg" width="130" height="130" viewBox="0 0 130 130"><rect width="130" height="130" fill="rgba(255,255,255,0)"/><path d="M213.12,304.745c2.606-6.314,12.173-3.381,28.069-4.972s25.4-6.709,25.185-18.1c-.18-9.424-6-15.734-13.119-24.262-4.392-5.259-3.256-8.75,6.32-7.955s17.713-1.247,17.918-11.821c.2-10.26-7.576-14.628-33.623-14.827s-28.967,7.167-29.3,12.926c-.766,13.125,21.482,29,19.535,39.774-.972,5.378-9.9,5.8-19.035,6.006-11.335.25-21.38-3.551-26.463-17.741-8.265-23.076.232-69.192,43.391-69.8,78.333-1.1,123.913,105.822,21.486,123.872C230.016,321.983,209.1,314.489,213.12,304.745Z" transform="translate(-183.931 -189.852)" fill="#fc9e40" opacity="0.3"/><g transform="translate(4.031 4.203)"><path d="M444.937,788.526a60.936,60.936,0,1,1,60.935-60.936A60.935,60.935,0,0,1,444.937,788.526Z" transform="translate(-384.003 -666.654)" fill="#fc9e40"/><path d="M3.218,42.728,61.341,1.6,83.755,26.561A60.974,60.974,0,0,1,27.991,70.4Z" transform="translate(35.701 51.412)" fill="#e98a2a" stroke="rgba(0,0,0,0)" stroke-miterlimit="10" stroke-width="1"/></g><path d="M36,0,46.62,23.074,72,25.974,53.184,43.134,58.249,68,36,55.532,13.751,68l5.066-24.866L0,25.974l25.38-2.9Z" transform="translate(29 31)" fill="#fff"/><path d="M36,59.531V4L46.62,27.074,72,29.974,53.184,47.134,58.249,72Z" transform="translate(29 27)" fill="#e9bc7f" opacity="0.34"/></svg>