<svg id="Component_10_1" data-name="Component 10 – 1" xmlns="http://www.w3.org/2000/svg" xmlns:xlink="http://www.w3.org/1999/xlink" width="116.68" height="95.35" viewBox="0 0 116.68 95.35">
  <defs>
    <linearGradient id="linear-gradient" x1="0.203" y1="0.153" x2="0.862" y2="0.848" gradientUnits="objectBoundingBox">
      <stop offset="0" stop-color="#ffb2c2"/>
      <stop offset="1" stop-color="#f85e8a"/>
    </linearGradient>
  </defs>
  <path id="Path_90" data-name="Path 90" d="M259.5,272.9c-1.928-4.5-9.006-2.409-20.766-3.542s-18.794-4.781-18.633-12.894c.133-6.714,4.438-11.21,9.706-17.287,3.249-3.747,2.409-6.235-4.676-5.668s-13.1-.888-13.256-8.423c-.147-7.31,5.6-10.422,24.875-10.564s21.431,5.106,21.679,9.21c.567,9.352-15.893,20.664-14.453,28.339.719,3.832,7.325,4.136,14.083,4.28,8.386.178,15.817-2.53,19.578-12.641,6.115-16.442-.172-49.3-32.1-49.734-57.952-.787-91.674,75.4-15.9,88.26C247,285.18,262.474,279.84,259.5,272.9Z" transform="translate(-170.45 -193.967)" fill="url(#linear-gradient)"/>
  <path id="Path_91" data-name="Path 91" d="M238.051,487.765c-23.278-3.951-36.22-13.877-41.3-25.712,1.343,43.362,58.7,33.735,51.662,26.536A58.1,58.1,0,0,1,238.051,487.765Z" transform="translate(-178.862 -399.499)" fill="#ffbd88"/>
  <path id="Path_92" data-name="Path 92" d="M197.193,312.438a58.359,58.359,0,0,0-.526,9.5c5.084,11.835,18.026,21.762,41.3,25.712a58.1,58.1,0,0,0,10.358.823,5.625,5.625,0,0,0-1.514-1.037c-5.882-2.941-22.2-10.957-18.052-28.44q.143-.669.343-1.314h0c1.423-4.6,4.936-8.368,9.031-13.092,3.249-3.747,2.409-6.235-4.676-5.668s-13.1-.888-13.256-8.423c-.147-7.31,5.6-10.422,24.875-10.564a52.887,52.887,0,0,1,13.8,1.323C245.959,277.162,202.016,276.193,197.193,312.438Z" transform="translate(-178.783 -259.385)" fill="#ffbd88" style="mix-blend-mode: multiply;isolation: isolate"/>
  <path id="Path_93" data-name="Path 93" d="M553.316,259.95c5.138-5.257,8.393-11.105,7.14-17.327-1.168-5.8-8.328-8.842-17.818-9.752C549.958,240.088,553.14,250.5,553.316,259.95Z" transform="translate(-444.045 -223.793)" fill="#ab8eeb" style="mix-blend-mode: multiply;isolation: isolate"/>
  <path id="Path_94" data-name="Path 94" d="M354.031,231.894c-23.738-2.278-61.546,8.807-57.033,23.64a12.241,12.241,0,0,1-.137-1.6c-.147-7.31,5.6-10.422,24.875-10.564s21.43,5.106,21.679,9.21c.567,9.352-15.893,20.664-14.453,28.339a4.062,4.062,0,0,0,2.788,2.917c-3.967-2.475,20.252-11.86,32.958-24.861C364.534,249.527,361.351,239.11,354.031,231.894Z" transform="translate(-255.438 -222.816)" fill="#ab8eeb" style="mix-blend-mode: multiply;isolation: isolate"/>
  <path id="Path_95" data-name="Path 95" d="M220.317,203.657q-4.136-.319-8.763-.324c-30.987.014-39.438,20.863-31.551,40.316C183.558,226.489,199.022,209.825,220.317,203.657Z" transform="translate(-163.899 -201.148)" fill="#f757af" opacity="0.4"/>
  <path id="Path_96" data-name="Path 96" d="M229.431,204.721c-21.295,6.168-36.759,22.832-40.314,39.992,6.8,16.78,25.761,32.52,52.9,32.952h.017c-.246-.021-.49-.042-.74-.066-11.761-1.134-18.794-4.78-18.633-12.894.133-6.715,4.438-11.21,9.706-17.287,3.249-3.747,2.409-6.235-4.676-5.668s-13.1-.888-13.256-8.423c-.147-7.31,5.6-10.422,24.875-10.564s21.43,5.106,21.679,9.21c.284,4.684-3.7,9.861-7.575,14.826C272.1,225.451,263.516,207.35,229.431,204.721Z" transform="translate(-173.013 -202.212)" fill="#f757af" style="mix-blend-mode: multiply;isolation: isolate"/>
  <path id="Path_97" data-name="Path 97" d="M530.5,498.556c-.828,2.51,14.528,10.414,16.4,4.833S531.331,496.046,530.5,498.556Z" transform="translate(-434.716 -426.628)" fill="#f757af"/>
  <path id="Path_98" data-name="Path 98" d="M158.157,465.715c2,1.665-2.024,9.855-6.487,6.168S156.161,464.05,158.157,465.715Z" transform="translate(-143.359 -402.016)" fill="#f757af"/>
  <path id="Path_99" data-name="Path 99" d="M542.484,471.982c-1.471,2.574,6.736,2.615,6.781-.457S543.426,470.334,542.484,471.982Z" transform="translate(-443.791 -405.502)" fill="#ab8eeb"/>
  <path id="Path_100" data-name="Path 100" d="M547.018,209.314c3.438-1.246.792-5.437-1.589-2.664C544.069,208.234,545.115,210,547.018,209.314Z" transform="translate(-445.711 -202.977)" fill="#ab8eeb" style="mix-blend-mode: multiply;isolation: isolate"/>
  <path id="Path_101" data-name="Path 101" d="M132.663,435.447c-1.69,2.255-6.354,5.056-10.023,4.062-3.095-.839-5.4-9.241,5.846-7.627C134.925,432.806,133.473,434.365,132.663,435.447Z" transform="translate(-120.099 -376.211)" fill="#ffbd88"/>
</svg>
