<svg xmlns="http://www.w3.org/2000/svg" width="79.224" height="16" viewBox="0 0 79.224 16"><path d="M-34.7-6.848a11.517,11.517,0,0,1-3.137-.409A6.455,6.455,0,0,1-40.2-8.419a1.535,1.535,0,0,1-.459-.52,1.55,1.55,0,0,1-.139-.7,1.53,1.53,0,0,1,.331-.974.954.954,0,0,1,.758-.42,1.4,1.4,0,0,1,.459.077,2.838,2.838,0,0,1,.544.277,7.065,7.065,0,0,0,1.857.874,7.307,7.307,0,0,0,2.07.277,3.956,3.956,0,0,0,2.156-.487,1.567,1.567,0,0,0,.747-1.394,1.258,1.258,0,0,0-.694-1.107,8.691,8.691,0,0,0-2.465-.8,13.307,13.307,0,0,1-3.169-1.018,4.145,4.145,0,0,1-1.729-1.483,4.022,4.022,0,0,1-.544-2.147,4.289,4.289,0,0,1,.779-2.512,5.2,5.2,0,0,1,2.156-1.748,7.373,7.373,0,0,1,3.105-.631,7.742,7.742,0,0,1,4.994,1.571,1.741,1.741,0,0,1,.459.542,1.494,1.494,0,0,1,.139.675,1.53,1.53,0,0,1-.331.974.954.954,0,0,1-.758.42,1.4,1.4,0,0,1-.438-.066,3,3,0,0,1-.566-.288,8.861,8.861,0,0,0-1.611-.863,5.183,5.183,0,0,0-1.867-.288,3.537,3.537,0,0,0-2.049.52,1.647,1.647,0,0,0-.747,1.427,1.313,1.313,0,0,0,.288.874,2.383,2.383,0,0,0,.96.609,14.271,14.271,0,0,0,1.91.553,10.4,10.4,0,0,1,4.173,1.7,3.491,3.491,0,0,1,1.27,2.855,4.257,4.257,0,0,1-.758,2.5,4.913,4.913,0,0,1-2.134,1.682A7.954,7.954,0,0,1-34.7-6.848Zm21.661-2.788a1.569,1.569,0,0,1,.491,1.106A1.5,1.5,0,0,1-13-7.446a1.443,1.443,0,0,1-1.056.465,1.621,1.621,0,0,1-1.217-.575l-6.616-6.705v5.621a1.741,1.741,0,0,1-.448,1.261,1.611,1.611,0,0,1-1.217.465,1.611,1.611,0,0,1-1.217-.465,1.741,1.741,0,0,1-.448-1.261V-21.055a1.71,1.71,0,0,1,.448-1.239,1.611,1.611,0,0,1,1.217-.465,1.611,1.611,0,0,1,1.217.465,1.71,1.71,0,0,1,.448,1.239v5.289l6.446-6.484a1.447,1.447,0,0,1,1.067-.487,1.425,1.425,0,0,1,1.046.454,1.476,1.476,0,0,1,.448,1.073A1.583,1.583,0,0,1-13.4-20.06l-5.08,4.935Zm5.949,2.722A1.611,1.611,0,0,1-8.3-7.379a1.741,1.741,0,0,1-.448-1.261V-21.055A1.71,1.71,0,0,1-8.3-22.295a1.611,1.611,0,0,1,1.217-.465,1.611,1.611,0,0,1,1.217.465,1.71,1.71,0,0,1,.448,1.239V-8.641a1.741,1.741,0,0,1-.448,1.261A1.611,1.611,0,0,1-7.086-6.914ZM.126-7.047a1.527,1.527,0,0,1-1.153-.42,1.652,1.652,0,0,1-.406-1.2V-21.055a1.71,1.71,0,0,1,.448-1.239,1.611,1.611,0,0,1,1.217-.465,1.611,1.611,0,0,1,1.217.465A1.71,1.71,0,0,1,1.9-21.055v11.2H7.361q1.558,0,1.558,1.416,0,1.394-1.558,1.394Zm14.017,0a1.527,1.527,0,0,1-1.153-.42,1.652,1.652,0,0,1-.406-1.2V-21.055a1.71,1.71,0,0,1,.448-1.239,1.611,1.611,0,0,1,1.217-.465,1.611,1.611,0,0,1,1.217.465,1.71,1.71,0,0,1,.448,1.239v11.2h5.464q1.558,0,1.558,1.416,0,1.394-1.558,1.394Z" transform="translate(40.8 22.848)" fill="#fff"/><path d="M3.074-9.732A2.481,2.481,0,0,1,4.507-9.4a1.164,1.164,0,0,1,.461,1.014,1.188,1.188,0,0,1-.461,1.036,2.481,2.481,0,0,1-1.434.331H-5.9a1.875,1.875,0,0,1-1.267-.408A1.3,1.3,0,0,1-7.64-8.454a1.878,1.878,0,0,1,.512-1.234L.6-19.849H-5.72a2.481,2.481,0,0,1-1.434-.331,1.164,1.164,0,0,1-.461-1.014,1.188,1.188,0,0,1,.461-1.036A2.481,2.481,0,0,1-5.72-22.56H2.869a1.875,1.875,0,0,1,1.267.408,1.3,1.3,0,0,1,.474,1.025,1.873,1.873,0,0,1-.486,1.234L-2.827-9.732Z" transform="translate(74.256 22.79)" fill="#f63980"/></svg>