<svg xmlns="http://www.w3.org/2000/svg" xmlns:xlink="http://www.w3.org/1999/xlink" width="130" height="130" viewBox="0 0 130 130"><defs><clipPath id="a"><path d="M0,0H41a0,0,0,0,1,0,0V25A12,12,0,0,1,29,37H12A12,12,0,0,1,0,25V0A0,0,0,0,1,0,0Z" transform="translate(0 0)" fill="#19ad87"/></clipPath></defs><rect width="130" height="130" fill="rgba(255,255,255,0)"/><path d="M557.593,270.8c7.2-7.363,11.754-15.553,10-24.267-1.635-8.118-11.664-12.383-24.954-13.658C552.889,242.978,557.347,257.567,557.593,270.8Z" transform="translate(-438.189 -214.26)" fill="#a84692" opacity="0.4" style="mix-blend-mode:multiply;isolation:isolate"/><path d="M237.573,203.787q-5.793-.447-12.273-.454c-43.4.02-55.233,29.219-44.187,56.463C186.093,235.762,207.75,212.425,237.573,203.787Z" transform="translate(-176.465 -199.139)" fill="#a84692" opacity="0.2"/><path d="M237.573,203.787q-5.793-.447-12.273-.454c-43.4.02-55.233,29.219-44.187,56.463C186.093,235.762,207.75,212.425,237.573,203.787Z" transform="translate(-172.574 -194.796)" fill="#a84692" opacity="0.2"/><g transform="translate(4.195 4.194)"><path d="M444.807,194.614a60.806,60.806,0,1,1,60.805-60.806A60.806,60.806,0,0,1,444.807,194.614Z" transform="translate(-384.003 -73.001)" fill="#a84692"/></g><g transform="translate(27.101 28.365)"><g transform="translate(0 0)"><path d="M525.211,167.884l1.269-11.364-35.306-34.542-5.863,3.951-5.736,6.118-38.46-7.013-1.313,7.627V167.63c-1.345,1.587,9.779,2.07,3.192,8.9-4.26,4.259-.374-.25,2.549,1.912l-3.187,1.657-3.314,7.01c2.694.365,28.935,29.325,30.37,29.243A60.755,60.755,0,0,0,525.211,167.884Z" transform="translate(-427.702 -119.112)" fill="#8d3b7b" opacity="0.8"/><g transform="translate(-1025.993 -954.843)"><rect width="54" height="68" rx="4" transform="translate(1036.892 956.478)" fill="#fff"/><path d="M6.892,19.479a3,3,0,0,1-3-3v-3a3,3,0,0,1,3-3h3a5,5,0,1,1,10,0h3a3,3,0,0,1,3,3v3a3,3,0,0,1-3,3Z" transform="translate(1049 943)" fill="#bbb"/><path d="M9.15,0A9.15,9.15,0,1,0,18.3,9.15,9.15,9.15,0,0,0,9.15,0Zm3.217,5.037a1.212,1.212,0,0,1,.88.373,1.294,1.294,0,0,1,0,1.8L11.269,9.275l-3.246,3.4a1.209,1.209,0,0,1-1.747,0L4.823,11.146a1.292,1.292,0,0,1,0-1.8,1.215,1.215,0,0,1,1.749,0l.572.625L11.5,5.41A1.212,1.212,0,0,1,12.366,5.037Z" transform="translate(1043.006 969.377)" fill="#689f38"/><g transform="translate(1043.006 992.251)" fill="none"><path d="M9.15,0A9.15,9.15,0,1,0,18.3,9.15,9.15,9.15,0,0,0,9.15,0Z" stroke="none"/><path d="M 9.149511337280273 2.000001907348633 C 5.207261085510254 2.000001907348633 2.000001907348633 5.20726203918457 2.000001907348633 9.14951229095459 C 2.000001907348633 13.09176254272461 5.207261085510254 16.29902267456055 9.149511337280273 16.29902267456055 C 13.09176063537598 16.29902267456055 16.29902076721191 13.09176254272461 16.29902076721191 9.14951229095459 C 16.29902076721191 5.20726203918457 13.09176063537598 2.000001907348633 9.149511337280273 2.000001907348633 M 9.149511337280273 1.9073486328125e-06 C 14.20265197753906 1.9073486328125e-06 18.29902076721191 4.096372604370117 18.29902076721191 9.14951229095459 C 18.29902076721191 14.20265197753906 14.20265197753906 18.29902267456055 9.149511337280273 18.29902267456055 C 4.096371650695801 18.29902267456055 1.9073486328125e-06 14.20265197753906 1.9073486328125e-06 9.14951229095459 C 1.9073486328125e-06 4.096372604370117 4.096371650695801 1.9073486328125e-06 9.149511337280273 1.9073486328125e-06 Z" stroke="none" fill="#dcdcdc"/></g><rect width="16.012" height="3.431" rx="1.716" transform="translate(1065.88 977.383)" fill="#707070" opacity="0.6"/><rect width="16.012" height="3.431" rx="1.716" transform="translate(1065.88 1000.256)" fill="#707070" opacity="0.6"/><g transform="translate(1049.892 987.478)" clip-path="url(#a)"><path d="M1059.811,1211.334l2.118-7.414h0l1.9-6.631,0,0,21.716-22.1h0l2.266-2.307h0l3-3.052a1.754,1.754,0,0,1,2.5,0l7.29,7.426a1.828,1.828,0,0,1,0,2.544l-2.995,3.05-23.98,24.41-13.8,4.087Z" transform="translate(-1051.984 -1166.312)" opacity="0.16"/></g><path d="M14.892,26.479v-14a5,5,0,0,1,5,5h3a3,3,0,0,1,3,3v3a3,3,0,0,1-3,3Z" transform="translate(1049 936)" fill="#a7a7a7"/></g></g></g><g transform="translate(-1117.175 -913.278)"><path d="M44.317,0,29.838,4.181.563,33.787a1.471,1.471,0,0,0,0,2.314l7.98,7.98c.756.748,2.03-.055,2.786-.8L40.085,14.664l1.928-6.706h0L44.326.007Z" transform="translate(1217.327 1015.673) rotate(180)" fill="#f8b779"/><g transform="translate(1200.742 974.769)"><path d="M10.69,13.166,0,2.474,2.475,0l10.69,10.689Z" fill="#f5f5f5"/></g><path d="M23.706,0,0,23.7l5.347,5.346,23.7-23.7Z" transform="translate(1182.382 982.587)" fill="#e69a0f"/><path d="M23.707,0,0,23.706l5.344,5.343L29.05,5.346Z" transform="translate(1177.038 977.241)" fill="#ffc70c"/><path d="M13.963,8.525,6,.561a1.938,1.938,0,0,0-2.728,0L0,3.835,10.692,14.524l3.269-3.271A1.935,1.935,0,0,0,13.963,8.525Z" transform="translate(1203.215 970.934)" fill="#d54354"/><path d="M9.03,3.981C6.077,1.026,2.968-.647,2.084.236l0,0L0,7.389l2.431,3.856-.224.5L5.64,12.966l7.136-2.041C13.657,10.042,11.984,6.933,9.03,3.981Z" transform="translate(1174.954 1000.711)" fill="#f8b779"/><g transform="translate(1172.657 1008.061)"><path d="M7.959,5.643A8.245,8.245,0,0,0,5.864,2.1,8.267,8.267,0,0,0,2.313,0L0,7.951l.008.006Z" fill="#26272e"/></g></g></svg>